<svg width="60" height="60" viewBox="0 0 60 60" fill="none" xmlns="http://www.w3.org/2000/svg">
<circle r="30" transform="matrix(-1 0 0 1 30 30)" fill="#FAD241"/>
<path d="M21.7324 28.2325L31.7324 18.2325C32.2039 17.7771 32.8355 17.5252 33.4909 17.5309C34.1464 17.5366 34.7735 17.7995 35.237 18.263C35.7005 18.7265 35.9634 19.3535 35.9691 20.009C35.9748 20.6645 35.7228 21.296 35.2674 21.7675L27.0349 30L35.2674 38.2325C35.7228 38.7041 35.9748 39.3356 35.9691 39.991C35.9634 40.6465 35.7005 41.2736 35.237 41.7371C34.7735 42.2006 34.1464 42.4635 33.4909 42.4692C32.8355 42.4749 32.2039 42.2229 31.7324 41.7675L21.7324 31.7675C21.2638 31.2987 21.0005 30.663 21.0005 30C21.0005 29.3371 21.2638 28.7014 21.7324 28.2325Z" fill="#33241A"/>
</svg>
