<svg width="60" height="60" viewBox="0 0 60 60" fill="none" xmlns="http://www.w3.org/2000/svg">
<circle cx="30" cy="30" r="30" transform="rotate(180 30 30)" fill="#FAD241"/>
<circle cx="30" cy="30" r="30" transform="rotate(180 30 30)" fill="black" fill-opacity="0.1"/>
<path d="M21.7325 31.7675L31.7325 41.7675C32.204 42.2229 32.8355 42.4748 33.491 42.4691C34.1465 42.4634 34.7735 42.2005 35.237 41.737C35.7005 41.2735 35.9634 40.6465 35.9691 39.991C35.9748 39.3355 35.7229 38.704 35.2675 38.2325L27.035 30L35.2675 21.7675C35.7229 21.296 35.9748 20.6644 35.9691 20.009C35.9634 19.3535 35.7005 18.7264 35.237 18.2629C34.7735 17.7994 34.1465 17.5365 33.491 17.5308C32.8355 17.5251 32.204 17.7771 31.7325 18.2325L21.7325 28.2325C21.2638 28.7013 21.0005 29.337 21.0005 30C21.0005 30.6629 21.2638 31.2986 21.7325 31.7675V31.7675Z" fill="#33241A"/>
</svg>
