<svg width="60" height="60" viewBox="0 0 60 60" fill="none" xmlns="http://www.w3.org/2000/svg">
<circle cx="30" cy="30" r="30" fill="#FAD241"/>
<path d="M38.2675 28.2325L28.2675 18.2325C27.796 17.7771 27.1645 17.5252 26.509 17.5309C25.8535 17.5366 25.2265 17.7995 24.763 18.263C24.2995 18.7265 24.0366 19.3535 24.0309 20.009C24.0252 20.6645 24.2771 21.296 24.7325 21.7675L32.965 30L24.7325 38.2325C24.2771 38.7041 24.0252 39.3356 24.0309 39.991C24.0366 40.6465 24.2995 41.2736 24.763 41.7371C25.2265 42.2006 25.8535 42.4635 26.509 42.4692C27.1645 42.4749 27.796 42.2229 28.2675 41.7675L38.2675 31.7675C38.7362 31.2987 38.9995 30.663 38.9995 30C38.9995 29.3371 38.7362 28.7014 38.2675 28.2325Z" fill="#33241A"/>
</svg>
