<svg width="53" height="53" viewBox="0 0 53 53" fill="none" xmlns="http://www.w3.org/2000/svg">
<circle cx="26.5" cy="26.5" r="26.5" fill="#FAD241"/>
<g clip-path="url(#clip0_110_209)">
<path d="M38.112 32.2448L34.6844 28.8172C33.4603 27.5931 31.3793 28.0828 30.8896 29.6741C30.5224 30.7759 29.2983 31.3879 28.1966 31.143C25.7483 30.531 22.4432 27.3483 21.8311 24.7776C21.4639 23.6758 22.1983 22.4517 23.3 22.0845C24.8914 21.5949 25.3811 19.5138 24.1569 18.2897L20.7294 14.8621C19.7501 14.0053 18.2811 14.0053 17.4242 14.8621L15.0984 17.188C12.7725 19.6362 15.3432 26.1241 21.0966 31.8775C26.85 37.6309 33.3379 40.3241 35.7861 37.8758L38.112 35.5499C38.9689 34.5706 38.9689 33.1017 38.112 32.2448Z" fill="#4B362A"/>
</g>
<defs>
<clipPath id="clip0_110_209">
<rect width="24.561" height="24.561" fill="white" transform="translate(14.2195 14.2195)"/>
</clipPath>
</defs>
</svg>
