<svg width="41" height="41" viewBox="0 0 41 41" fill="none" xmlns="http://www.w3.org/2000/svg">
<circle cx="20.5" cy="20.5" r="19.5" stroke="#FAD241" stroke-width="2"/>
<g clip-path="url(#clip0_110_208)">
<path d="M29.4829 24.9441L26.8314 22.2926C25.8844 21.3456 24.2746 21.7244 23.8958 22.9555C23.6117 23.8078 22.6647 24.2812 21.8124 24.0918C19.9185 23.6183 17.3617 21.1562 16.8882 19.1676C16.6041 18.3153 17.1723 17.3683 18.0246 17.0843C19.2556 16.7055 19.6344 15.0956 18.6875 14.1487L16.036 11.4972C15.2784 10.8343 14.142 10.8343 13.4791 11.4972L11.6799 13.2964C9.88067 15.1903 11.8693 20.2093 16.32 24.66C20.7708 29.1107 25.7897 31.1941 27.6836 29.3001L29.4829 27.5009C30.1458 26.7433 30.1458 25.607 29.4829 24.9441Z" fill="#FAD241"/>
</g>
<defs>
<clipPath id="clip0_110_208">
<rect width="19" height="19" fill="white" transform="translate(11 11)"/>
</clipPath>
</defs>
</svg>
